<?xml version="1.0" standalone="no"?>
<!DOCTYPE svg PUBLIC "-//W3C//DTD SVG 20010904//EN"
 "http://www.w3.org/TR/2001/REC-SVG-20010904/DTD/svg10.dtd">
<svg version="1.0" xmlns="http://www.w3.org/2000/svg"
 width="256.000000pt" height="256.000000pt" viewBox="0 0 256.000000 256.000000"
 preserveAspectRatio="xMidYMid meet">
<metadata>
Created by potrace 1.11, written by Peter Selinger 2001-2013
</metadata>
<g transform="translate(0.000000,256.000000) scale(0.100000,-0.100000)"
fill="#000000" stroke="none">
<path d="M1920 2240 l0 -320 320 0 320 0 0 320 0 320 -320 0 -320 0 0 -320z"/>
<path d="M5 1601 c1 -174 3 -318 4 -321 1 -4 580 -5 626 -1 6 1 9 110 8 308 0
170 -1 313 -2 319 -1 7 -98 11 -319 11 l-318 0 1 -316z"/>
<path d="M1279 1277 c-1 -1 -3 -145 -4 -319 l-1 -318 30 0 c166 -3 598 0 604
4 4 2 7 145 6 318 l0 313 -317 2 c-174 2 -318 2 -318 0z"/>
<path d="M23 642 l-23 -3 0 -319 0 -318 318 0 319 0 0 319 c0 285 -2 319 -16
320 -67 2 -581 3 -598 1z"/>
</g>
</svg>
